HIERARCHY
ROOT Hips
{
    OFFSET 0.000000 0.000000 0.000000
    CHANNELS 6 Xposition Yposition Zposition Zrotation Yrotation Xrotation
    JOINT Chest
    {
        OFFSET 0.000000 1.634758 -0.000000
        CHANNELS 3 Zrotation Yrotation Xrotation
        JOINT Chest2
        {
            OFFSET 0.000000 2.197341 0.000000
            CHANNELS 3 Zrotation Yrotation Xrotation
            JOINT Neck
            {
                OFFSET 0.000000 0.961544 0.000000
                CHANNELS 3 Zrotation Yrotation Xrotation
                JOINT Head
                {
                    OFFSET 0.000000 0.632542 -0.032565
                    CHANNELS 3 Zrotation Yrotation Xrotation
                    End Site
                    {
                        OFFSET -0.000001 0.439502 2.922845
                    }
                }
            }
            JOINT LeftCollar
            {
                OFFSET 0.167536 0.778237 -0.168280
                CHANNELS 3 Zrotation Yrotation Xrotation
                JOINT LeftShoulder
                {
                    OFFSET 0.831514 -0.002900 0.006458
                    CHANNELS 3 Zrotation Yrotation Xrotation
                    JOINT LeftElbow
                    {
                        OFFSET 2.272872 -0.026639 0.059314
                        CHANNELS 3 Zrotation Yrotation Xrotation
                        JOINT LeftWrist
                        {
                            OFFSET 2.081982 -0.024402 0.054333
                            CHANNELS 3 Zrotation Yrotation Xrotation
                            JOINT LeftHandThumb1
                            {
                                OFFSET 0.218903 -0.128645 0.283837
                                CHANNELS 3 Zrotation Yrotation Xrotation
                                JOINT LeftHandThumb2
                                {
                                    OFFSET 0.137157 -0.025101 0.077902
                                    CHANNELS 3 Zrotation Yrotation Xrotation
                                    JOINT LeftHandThumb3
                                    {
                                        OFFSET 0.165861 -0.067014 0.039226
                                        CHANNELS 3 Zrotation Yrotation Xrotation
                                        End Site
                                        {
                                            OFFSET 0.241157 -0.045065 0.107930
                                        }
                                    }
                                }
                            }
                            JOINT LeftHandFore1
                            {
                                OFFSET 0.767340 -0.016076 0.196678
                                CHANNELS 3 Zrotation Yrotation Xrotation
                                JOINT LeftHandFore2
                                {
                                    OFFSET 0.212944 -0.039015 0.011315
                                    CHANNELS 3 Zrotation Yrotation Xrotation
                                    JOINT LeftHandFore3
                                    {
                                        OFFSET 0.126107 -0.028526 0.006804
                                        CHANNELS 3 Zrotation Yrotation Xrotation
                                        End Site
                                        {
                                            OFFSET 0.190484 -0.032402 0.005737
                                        }
                                    }
                                }
                            }
                            JOINT LeftHandMiddle1
                            {
                                OFFSET 0.709887 -0.008320 0.018526
                                CHANNELS 3 Zrotation Yrotation Xrotation
                                JOINT LeftHandMiddle2
                                {
                                    OFFSET 0.209127 -0.127483 0.008816
                                    CHANNELS 3 Zrotation Yrotation Xrotation
                                    JOINT LeftHandMiddle3
                                    {
                                        OFFSET 0.100261 -0.106283 0.005918
                                        CHANNELS 3 Zrotation Yrotation Xrotation
                                        End Site
                                        {
                                            OFFSET 0.122274 -0.201419 0.010483
                                        }
                                    }
                                }
                            }
                            JOINT LeftHandRing1
                            {
                                OFFSET 0.743817 -0.005823 -0.153668
                                CHANNELS 3 Zrotation Yrotation Xrotation
                                JOINT LeftHandRing2
                                {
                                    OFFSET 0.312797 -0.163728 -0.009197
                                    CHANNELS 3 Zrotation Yrotation Xrotation
                                    JOINT LeftHandRing3
                                    {
                                        OFFSET 0.077856 -0.111983 0.001957
                                        CHANNELS 3 Zrotation Yrotation Xrotation
                                        End Site
                                        {
                                            OFFSET 0.046861 -0.110548 0.001738
                                        }
                                    }
                                }
                            }
                            JOINT LeftHandLittle1
                            {
                                OFFSET 0.689408 -0.053302 -0.308304
                                CHANNELS 3 Zrotation Yrotation Xrotation
                                JOINT LeftHandLittle2
                                {
                                    OFFSET 0.187514 -0.050420 -0.018722
                                    CHANNELS 3 Zrotation Yrotation Xrotation
                                    JOINT LeftHandLittle3
                                    {
                                        OFFSET 0.110150 -0.047159 -0.011802
                                        CHANNELS 3 Zrotation Yrotation Xrotation
                                        End Site
                                        {
                                            OFFSET 0.184611 -0.045535 -0.011576
                                        }
                                    }
                                }
                            }
                        }
                    }
                }
            }
            JOINT RightCollar
            {
                OFFSET -0.167536 0.778237 -0.168280
                CHANNELS 3 Zrotation Yrotation Xrotation
                JOINT RightShoulder
                {
                    OFFSET -0.831514 -0.002900 0.006457
                    CHANNELS 3 Zrotation Yrotation Xrotation
                    JOINT RightElbow
                    {
                        OFFSET -2.272872 -0.026639 0.059313
                        CHANNELS 3 Zrotation Yrotation Xrotation
                        JOINT RightWrist
                        {
                            OFFSET -2.081982 -0.024402 0.054331
                            CHANNELS 3 Zrotation Yrotation Xrotation
                            JOINT RightHandThumb1
                            {
                                OFFSET -0.218911 -0.128571 0.283837
                                CHANNELS 3 Zrotation Yrotation Xrotation
                                JOINT RightHandThumb2
                                {
                                    OFFSET -0.137157 -0.025101 0.077902
                                    CHANNELS 3 Zrotation Yrotation Xrotation
                                    JOINT RightHandThumb3
                                    {
                                        OFFSET -0.165861 -0.067014 0.039226
                                        CHANNELS 3 Zrotation Yrotation Xrotation
                                        End Site
                                        {
                                            OFFSET -0.229436 -0.065997 0.121819
                                        }
                                    }
                                }
                            }
                            JOINT RightHandFore1
                            {
                                OFFSET -0.767344 -0.015991 0.196679
                                CHANNELS 3 Zrotation Yrotation Xrotation
                                JOINT RightHandFore2
                                {
                                    OFFSET -0.212956 -0.038967 0.011314
                                    CHANNELS 3 Zrotation Yrotation Xrotation
                                    JOINT RightHandFore3
                                    {
                                        OFFSET -0.126114 -0.028498 0.006722
                                        CHANNELS 3 Zrotation Yrotation Xrotation
                                        End Site
                                        {
                                            OFFSET -0.190043 -0.032287 0.014424
                                        }
                                    }
                                }
                            }
                            JOINT RightHandMiddle1
                            {
                                OFFSET -0.709887 -0.008302 0.018525
                                CHANNELS 3 Zrotation Yrotation Xrotation
                                JOINT RightHandMiddle2
                                {
                                    OFFSET -0.209111 -0.127501 0.008816
                                    CHANNELS 3 Zrotation Yrotation Xrotation
                                    JOINT RightHandMiddle3
                                    {
                                        OFFSET -0.100331 -0.106323 0.003652
                                        CHANNELS 3 Zrotation Yrotation Xrotation
                                        End Site
                                        {
                                            OFFSET -0.122536 -0.201510 0.002965
                                        }
                                    }
                                }
                            }
                            JOINT RightHandRing1
                            {
                                OFFSET -0.743819 -0.005785 -0.153669
                                CHANNELS 3 Zrotation Yrotation Xrotation
                                JOINT RightHandRing2
                                {
                                    OFFSET -0.312809 -0.163706 -0.009196
                                    CHANNELS 3 Zrotation Yrotation Xrotation
                                    JOINT RightHandRing3
                                    {
                                        OFFSET -0.077666 -0.111584 -0.011046
                                        CHANNELS 3 Zrotation Yrotation Xrotation
                                        End Site
                                        {
                                            OFFSET -0.046690 -0.110188 -0.009945
                                        }
                                    }
                                }
                            }
                            JOINT RightHandLittle1
                            {
                                OFFSET -0.689403 -0.053298 -0.308303
                                CHANNELS 3 Zrotation Yrotation Xrotation
                                JOINT RightHandLittle2
                                {
                                    OFFSET -0.187518 -0.050415 -0.018723
                                    CHANNELS 3 Zrotation Yrotation Xrotation
                                    JOINT RightHandLittle3
                                    {
                                        OFFSET -0.110149 -0.047154 -0.011798
                                        CHANNELS 3 Zrotation Yrotation Xrotation
                                        End Site
                                        {
                                            OFFSET -0.183446 -0.044965 -0.024786
                                        }
                                    }
                                }
                            }
                        }
                    }
                }
            }
        }
    }
    JOINT LeftHip
    {
        OFFSET 0.685143 0.673822 -0.044491
        CHANNELS 3 Zrotation Yrotation Xrotation
        JOINT LeftKnee
        {
            OFFSET 0.085364 -3.750208 0.017676
            CHANNELS 3 Zrotation Yrotation Xrotation
            JOINT LeftAnkle
            {
                OFFSET 0.094583 -4.155206 0.019585
                CHANNELS 3 Zrotation Yrotation Xrotation
                JOINT LeftToe
                {
                    OFFSET -0.000000 -0.395925 0.621478
                    CHANNELS 3 Zrotation Yrotation Xrotation
                    End Site
                    {
                        OFFSET -0.000000 -0.077878 0.321152
                    }
                }
            }
        }
    }
    JOINT RightHip
    {
        OFFSET -0.685143 0.673822 -0.044492
        CHANNELS 3 Zrotation Yrotation Xrotation
        JOINT RightKnee
        {
            OFFSET -0.085364 -3.750208 0.017677
            CHANNELS 3 Zrotation Yrotation Xrotation
            JOINT RightAnkle
            {
                OFFSET -0.094583 -4.155206 0.019585
                CHANNELS 3 Zrotation Yrotation Xrotation
                JOINT RightToe
                {
                    OFFSET -0.000000 -0.395925 0.621478
                    CHANNELS 3 Zrotation Yrotation Xrotation
                    End Site
                    {
                        OFFSET -0.000000 -0.077878 0.321152
                    }
                }
            }
        }
    }
}
MOTION
Frames: 4
Frame Time: 0.033333
-2.565417 8.351271 3.733382 179.791473 34.945919 179.897675 -0.174585 12.027744 -3.589312 0.118522 -1.859716 -3.647187 -14.888994 2.718945 3.878067 -0.089604 1.740062 10.446531 -10.667337 4.335653 -0.336475 -39.168484 37.476871 16.538660 0.746584 -61.884808 -1.252662 11.318083 0.709576 -11.840960 -0.000002 -0.000003 0.000007 -0.000003 0.000002 -0.000006 0.000003 0.000003 0.000004 -0.000001 0.000007 0.000003 0.000001 -0.000000 0.000002 0.000001 0.000002 -0.000003 0.000005 0.000002 0.000003 -0.000001 -0.000003 0.000003 -0.000003 0.000003 0.000003 0.000003 -0.000003 0.000005 0.000000 -0.000002 0.000000 -0.000006 0.000003 -0.000002 0.000000 -0.000002 0.000007 -0.000000 0.000003 -0.000002 -0.000004 0.000005 0.000003 14.540696 1.306310 0.469522 58.619572 -6.600059 0.400776 -0.011423 10.807410 -0.128108 -4.240367 1.843220 0.164483 -0.000001 -0.000002 -0.000002 0.000003 -0.000000 0.000002 -0.000003 -0.000003 -0.000003 -0.000001 0.000001 0.000000 0.000001 -0.000002 -0.000003 -0.000001 -0.000001 0.000000 -0.000002 -0.000001 0.000000 -0.000001 0.000001 -0.000002 0.000005 -0.000002 0.000000 0.000005 -0.000001 0.000000 0.000001 0.000001 0.000000 -0.000005 0.000001 0.000002 0.000001 -0.000000 0.000002 -0.000002 -0.000000 0.000003 0.000001 -0.000000 -0.000005 -4.131627 -0.512903 -12.428240 0.016559 0.207134 9.138504 4.830492 5.865220 -1.661486 -0.000000 -0.000002 0.000000 6.667118 -0.243367 0.453802 -0.026294 -0.260590 11.525717 -2.256048 -3.735557 -17.899601 -0.000000 -0.000009 0.000000
-2.563481 8.351272 3.733382 179.791473 34.945946 179.897675 -0.174588 12.027767 -3.589320 0.118526 -1.859730 -3.647179 -14.888994 2.718949 3.878020 -0.089612 1.740048 10.446447 -10.667225 4.335657 -0.336474 -39.161545 37.475883 16.551922 0.746670 -61.886276 -1.252744 11.310988 0.701034 -11.841609 -0.000005 -0.000005 0.000005 0.000002 -0.000002 -0.000007 -0.000000 0.000003 0.000004 0.000001 -0.000009 0.000009 -0.000001 0.000007 -0.000002 0.000002 -0.000002 -0.000002 0.000002 -0.000005 0.000010 -0.000006 0.000002 0.000000 0.000001 -0.000002 0.000005 0.000005 -0.000010 0.000003 -0.000003 -0.000002 -0.000005 0.000000 0.000002 0.000005 0.000001 -0.000007 0.000004 0.000001 0.000002 0.000003 0.000001 -0.000005 0.000002 14.540584 1.306332 0.469523 58.619144 -6.604274 0.404255 -0.011454 10.816455 -0.128218 -4.240072 1.831707 0.155273 0.000004 -0.000004 -0.000010 0.000004 0.000001 0.000003 -0.000003 -0.000005 -0.000003 0.000004 -0.000005 -0.000002 -0.000001 -0.000000 0.000002 0.000001 0.000001 0.000002 0.000012 -0.000005 -0.000002 -0.000003 -0.000000 0.000000 0.000003 -0.000001 0.000000 0.000002 -0.000008 -0.000003 -0.000004 0.000003 0.000000 -0.000003 -0.000001 0.000000 0.000006 -0.000009 0.000002 -0.000001 0.000001 -0.000003 0.000003 -0.000002 0.000002 -4.120881 -0.508726 -12.483296 0.016978 0.209727 9.253904 4.825306 5.859548 -1.719586 -0.000000 -0.000000 0.000001 6.680305 -0.239515 0.322457 -0.027527 -0.266561 11.793794 -2.260515 -3.737186 -18.036575 -0.000002 -0.000009 0.000005
-2.557902 8.351272 3.733383 179.791473 34.945965 179.897675 -0.174588 12.027785 -3.589320 0.118527 -1.859732 -3.647179 -14.889002 2.718920 3.877887 -0.089603 1.739983 10.446208 -10.666840 4.335616 -0.336462 -39.141068 37.473202 16.590857 0.746877 -61.891045 -1.252987 11.290077 0.675940 -11.843515 -0.000014 -0.000022 0.000001 -0.000002 -0.000003 -0.000003 -0.000000 0.000007 0.000002 -0.000006 -0.000017 -0.000003 0.000003 -0.000000 0.000000 -0.000003 -0.000002 0.000000 0.000000 -0.000015 0.000000 -0.000000 0.000003 0.000003 -0.000001 -0.000002 0.000002 -0.000006 -0.000017 -0.000003 0.000003 -0.000005 -0.000006 -0.000005 0.000003 0.000007 -0.000005 -0.000017 0.000002 0.000003 -0.000000 0.000000 -0.000005 0.000002 0.000004 14.540194 1.306397 0.469510 58.617901 -6.617816 0.414422 -0.011513 10.845359 -0.128568 -4.239202 1.797918 0.128208 0.000002 -0.000006 -0.000010 0.000001 0.000003 0.000002 -0.000000 0.000001 -0.000005 0.000000 -0.000004 -0.000002 -0.000000 0.000001 0.000002 -0.000002 0.000001 0.000000 -0.000001 -0.000004 -0.000002 0.000005 -0.000001 0.000002 0.000004 0.000000 0.000005 0.000009 -0.000009 0.000000 0.000001 -0.000001 -0.000002 -0.000008 0.000004 0.000000 0.000003 -0.000007 0.000007 0.000001 -0.000000 0.000002 0.000001 -0.000000 0.000002 -4.089964 -0.496368 -12.639540 0.018199 0.217088 9.581669 4.810946 5.842485 -1.884598 -0.000001 -0.000003 0.000002 6.718313 -0.228617 -0.035030 -0.031039 -0.282858 12.526321 -2.274632 -3.741836 -18.412222 -0.000001 -0.000002 0.000004
-2.549022 8.351274 3.733386 179.791473 34.945965 179.897675 -0.174585 12.027781 -3.589325 0.118517 -1.859726 -3.647191 -14.889007 2.718860 3.877693 -0.089599 1.739881 10.445827 -10.666279 4.335533 -0.336444 -39.107845 37.468761 16.653948 0.747214 -61.898590 -1.253383 11.255938 0.635031 -11.846583 -0.000009 -0.000014 -0.000001 -0.000002 -0.000003 -0.000005 0.000002 0.000003 0.000003 -0.000006 -0.000005 0.000005 0.000002 -0.000002 -0.000002 0.000003 -0.000000 0.000000 0.000003 -0.000010 0.000015 -0.000009 0.000002 0.000000 0.000007 -0.000000 -0.000002 -0.000000 -0.000015 -0.000001 0.000002 0.000005 0.000002 -0.000001 -0.000003 -0.000002 -0.000008 -0.000005 0.000013 0.000004 -0.000000 -0.000003 -0.000004 0.000005 0.000003 14.539639 1.306467 0.469490 58.615822 -6.638891 0.430871 -0.011608 10.890335 -0.129112 -4.237788 1.742990 0.084180 -0.000000 -0.000002 -0.000007 0.000002 0.000001 0.000000 0.000005 0.000001 0.000005 -0.000002 -0.000005 0.000000 -0.000000 0.000001 -0.000002 0.000005 -0.000001 0.000003 -0.000004 -0.000003 0.000005 0.000006 -0.000002 0.000002 -0.000001 0.000001 0.000003 -0.000001 -0.000004 0.000000 0.000001 0.000001 0.000002 -0.000001 0.000001 0.000000 -0.000003 -0.000008 0.000003 0.000001 -0.000001 0.000002 0.000000 0.000000 0.000000 -4.040827 -0.476018 -12.879467 0.020161 0.228409 10.086369 4.789652 5.813864 -2.138901 0.000000 0.000002 -0.000001 6.778767 -0.212360 -0.553474 -0.036540 -0.306576 13.596036 -2.300178 -3.748734 -18.964340 0.000000 -0.000000 0.000007
